<svg width="105" height="20" viewBox="0 0 105 20" fill="none" xmlns="http://www.w3.org/2000/svg">
<g id="fulllogogradient.svg" clip-path="url(#clip0_1_815)">
<path id="Vector" fill-rule="evenodd" clip-rule="evenodd" d="M0.0299988 10.1073C0.0299988 14.2418 3.38186 17.5937 7.51642 17.5937C9.98833 17.5937 12.1797 16.3948 13.5438 14.5478C13.9108 14.049 13.8593 13.3698 13.4222 12.9321L13.3294 12.8393C13.0631 12.573 12.73 12.4514 12.3562 12.4802C11.9829 12.5074 11.6719 12.6804 11.4491 12.9835C10.5623 14.1937 9.13269 14.9793 7.51698 14.9793C4.82735 14.9793 2.64555 12.7992 2.64555 10.1078C2.64555 7.4165 4.82735 5.2364 7.51698 5.2364C9.13269 5.2364 10.5646 6.02191 11.4491 7.23214C11.6719 7.53526 11.9829 7.70831 12.3562 7.73545C12.73 7.7643 13.0631 7.64101 13.3294 7.37635L13.4222 7.2819C13.8599 6.84588 13.9114 6.16443 13.5438 5.6679C12.1814 3.82089 9.98833 2.62198 7.51642 2.62198C3.38186 2.62085 0.0299988 5.97271 0.0299988 10.1073Z" fill="url(#paint0_linear_1_815)"/>
<path id="Vector_2" fill-rule="evenodd" clip-rule="evenodd" d="M4.77643 10.1073C4.77643 11.6206 6.0025 12.8467 7.51585 12.8467C9.02749 12.8467 10.2541 11.62 10.2541 10.1073C10.2541 8.59448 9.02806 7.36786 7.51585 7.36786C6.00307 7.36786 4.77643 8.59392 4.77643 10.1073Z" fill="url(#paint1_linear_1_815)"/>
<path id="Vector_3" fill-rule="evenodd" clip-rule="evenodd" d="M13.1768 10.1073C13.1768 11.0884 13.9765 11.8881 14.956 11.8881C15.9371 11.8881 16.7368 11.0879 16.7368 10.1073C16.7368 9.12607 15.9371 8.32642 14.956 8.32642C13.9765 8.32642 13.1768 9.12607 13.1768 10.1073Z" fill="url(#paint2_linear_1_815)"/>
<path id="Vector_4" fill-rule="evenodd" clip-rule="evenodd" d="M0.132393 10.1073C0.132393 12.5294 1.29963 14.6778 3.0997 16.0244C3.94799 15.7308 4.71088 15.2309 5.33748 14.5817C3.68162 13.7736 2.54039 12.073 2.54039 10.1078C2.54039 8.14094 3.68162 6.44155 5.33748 5.63342C4.71088 4.98249 3.94742 4.48427 3.0997 4.19077C1.29963 5.53671 0.132393 7.68513 0.132393 10.1073ZM6.62351 7.62575C6.93116 8.38581 7.10308 9.22562 7.10308 10.1073C7.10308 10.9889 6.93172 11.8287 6.62351 12.5888C5.60724 12.2235 4.87941 11.2502 4.87941 10.1073C4.87941 8.96434 5.60667 7.99107 6.62351 7.62575Z" fill="url(#paint3_linear_1_815)"/>
<path id="Vector_5" d="M23.898 14.8712C20.9883 14.8712 19.2465 12.7929 19.2465 10.1802C19.2465 7.58728 20.9883 5.50897 23.898 5.50897C26.5503 5.50897 28.2921 6.97368 28.6286 8.91343C28.6682 9.17074 28.5098 9.32909 28.2525 9.32909H26.0752C25.8377 9.32909 25.719 9.21033 25.6596 8.97281C25.4814 8.22066 25.0064 7.805 24.1157 7.805C22.7697 7.805 22.2155 9.03219 22.2155 10.1802C22.2155 11.4668 22.7697 12.5752 24.1157 12.5752C25.0064 12.5752 25.4814 12.1595 25.6596 11.4074C25.719 11.1699 25.8377 11.0511 26.0752 11.0511H28.2525C28.5098 11.0511 28.6682 11.1699 28.6286 11.3678C28.3515 13.3471 26.5899 14.8712 23.898 14.8712Z" fill="url(#paint4_linear_1_815)"/>
<path id="Vector_6" d="M34.7497 14.8712C31.6224 14.8712 29.7617 12.9315 29.7617 10.2C29.7617 7.46852 31.6421 5.50897 34.7497 5.50897C37.8374 5.50897 39.7178 7.46852 39.7178 10.2C39.7178 12.9513 37.8573 14.8712 34.7497 14.8712ZM34.7497 12.5554C36.056 12.5554 36.7686 11.5459 36.7686 10.2198C36.7686 8.87384 36.056 7.8248 34.7497 7.8248C33.4433 7.8248 32.711 8.89364 32.711 10.2198C32.711 11.5262 33.4235 12.5554 34.7497 12.5554Z" fill="url(#paint5_linear_1_815)"/>
<path id="Vector_7" d="M47.1912 5.50897C49.7643 5.50897 51.5457 7.42893 51.5457 10.1802C51.5457 12.9513 49.7643 14.8712 47.1912 14.8712C45.9838 14.8712 44.9545 14.4556 44.2024 13.7232V19.5029C42.2824 19.3049 41.2334 17.9194 41.2334 15.3463V5.62773C42.3715 5.86525 43.2028 6.41947 43.6878 7.26068C44.4498 6.16215 45.6869 5.50897 47.1912 5.50897ZM46.2807 12.496C47.4881 12.496 48.359 11.5459 48.359 10.2C48.359 8.85405 47.4881 7.90397 46.2807 7.90397C45.0733 7.90397 44.2024 8.85405 44.2024 10.2C44.2024 11.5459 45.0733 12.496 46.2807 12.496Z" fill="url(#paint6_linear_1_815)"/>
<path id="Vector_8" d="M53.8009 19.5029L55.523 15.1879L52.1383 6.28093C52.0393 6.00382 52.1581 5.82568 52.455 5.82568H54.6323C54.85 5.82568 55.0083 5.92465 55.0875 6.14237L57.0275 12.0606L58.0964 8.83427C58.8287 6.63721 60.1747 5.62775 62.2134 5.62775L58.0766 16.3755C57.2453 18.5132 55.9188 19.5029 53.8009 19.5029Z" fill="url(#paint7_linear_1_815)"/>
<path id="Vector_9" d="M73.6789 10.873L74.2727 8.89365C74.9456 6.63721 76.2916 5.62775 78.3699 5.62775L75.5988 14.2379C75.5196 14.4754 75.3811 14.5546 75.1634 14.5546H73.0455C72.8277 14.5546 72.6694 14.4754 72.5704 14.2577L70.413 9.32911L68.2753 14.2577C68.1961 14.4556 68.018 14.5546 67.8002 14.5546H65.6625C65.4448 14.5546 65.2865 14.4556 65.2271 14.2379L62.6539 6.28093C62.5748 6.00382 62.7133 5.82568 62.9904 5.82568H65.2271C65.4448 5.82568 65.6032 5.94444 65.6625 6.16217L67.1374 10.8829L68.1169 8.61654C69.0076 6.53824 70.0567 5.62775 71.363 5.62775L73.6789 10.873Z" fill="url(#paint8_linear_1_815)"/>
<path id="Vector_10" d="M80.8712 4.10365C79.7826 4.10365 78.6939 3.56923 78.6939 2.50039C78.6939 1.45134 79.7826 0.897125 80.8712 0.897125C81.94 0.897125 83.0485 1.45134 83.0485 2.50039C83.0485 3.56923 81.94 4.10365 80.8712 4.10365ZM82.0984 14.5545H79.9211C79.6638 14.5545 79.5252 14.416 79.5252 14.1587V5.62774C81.4452 6.02361 82.4942 7.34976 82.4942 9.38848V14.1587C82.4942 14.416 82.3557 14.5545 82.0984 14.5545Z" fill="url(#paint9_linear_1_815)"/>
<path id="Vector_11" d="M88.5951 14.8712C86.0814 14.8712 84.2208 13.9212 83.8447 11.7241C83.8051 11.4668 83.9635 11.3084 84.2208 11.3084H86.3783C86.6158 11.3084 86.7346 11.447 86.7939 11.6845C87.0315 12.6148 88.1201 12.8127 88.6545 12.8127C89.5848 12.8127 90.0203 12.4564 90.0203 11.9616C90.0203 10.3386 84.1812 11.8428 84.1812 8.31963C84.1812 6.63719 85.6261 5.50897 88.318 5.50897C90.6339 5.50897 92.1579 6.34029 92.5934 8.04252C92.6528 8.31963 92.5142 8.47798 92.2371 8.47798H90.1192C89.9015 8.47798 89.7629 8.35922 89.664 8.14149C89.4265 7.62686 89.0108 7.34976 88.1597 7.34976C87.4669 7.34976 87.17 7.62686 87.17 7.92376C87.17 9.44785 93.0091 8.08211 93.0091 11.6845C93.0091 13.7034 91.386 14.8712 88.5951 14.8712Z" fill="url(#paint10_linear_1_815)"/>
<path id="Vector_12" d="M99.1767 5.50897C101.829 5.50897 104.006 7.11223 104.006 10.0021V10.3583C104.006 10.6157 103.868 10.7542 103.61 10.7542H97.2369C97.3161 11.9616 98.0089 12.7533 99.1173 12.7533C99.9882 12.7533 100.562 12.3575 100.8 11.8231C100.899 11.6053 101.017 11.4866 101.235 11.4866H103.432C103.709 11.4866 103.868 11.6647 103.769 11.9418C103.076 13.9212 101.354 14.8712 99.1767 14.8712C96.1681 14.8712 94.0898 13.0898 94.0898 10.2C94.0898 7.34976 96.2472 5.50897 99.1767 5.50897ZM97.2765 9.15095H100.859C100.8 8.20087 100.127 7.5279 99.0777 7.5279C97.9789 7.5279 97.4445 8.20087 97.2765 9.15095Z" fill="url(#paint11_linear_1_815)"/>
</g>
<defs>
<linearGradient id="paint0_linear_1_815" x1="0.0299989" y1="10.2" x2="102.538" y2="22.5669" gradientUnits="userSpaceOnUse">
<stop stop-color="#FDA000"/>
<stop offset="1" stop-color="#D3208B"/>
</linearGradient>
<linearGradient id="paint1_linear_1_815" x1="0.0299965" y1="10.2" x2="102.538" y2="22.5669" gradientUnits="userSpaceOnUse">
<stop stop-color="#FDA000"/>
<stop offset="1" stop-color="#D3208B"/>
</linearGradient>
<linearGradient id="paint2_linear_1_815" x1="0.0300023" y1="10.2" x2="102.538" y2="22.5669" gradientUnits="userSpaceOnUse">
<stop stop-color="#FDA000"/>
<stop offset="1" stop-color="#D3208B"/>
</linearGradient>
<linearGradient id="paint3_linear_1_815" x1="0.0300018" y1="10.2" x2="102.538" y2="22.5669" gradientUnits="userSpaceOnUse">
<stop stop-color="#FDA000"/>
<stop offset="1" stop-color="#D3208B"/>
</linearGradient>
<linearGradient id="paint4_linear_1_815" x1="0.0299952" y1="10.2" x2="102.538" y2="22.5669" gradientUnits="userSpaceOnUse">
<stop stop-color="#FDA000"/>
<stop offset="1" stop-color="#D3208B"/>
</linearGradient>
<linearGradient id="paint5_linear_1_815" x1="0.0299912" y1="10.2" x2="102.538" y2="22.5669" gradientUnits="userSpaceOnUse">
<stop stop-color="#FDA000"/>
<stop offset="1" stop-color="#D3208B"/>
</linearGradient>
<linearGradient id="paint6_linear_1_815" x1="0.02999" y1="10.2" x2="102.538" y2="22.5669" gradientUnits="userSpaceOnUse">
<stop stop-color="#FDA000"/>
<stop offset="1" stop-color="#D3208B"/>
</linearGradient>
<linearGradient id="paint7_linear_1_815" x1="0.0300108" y1="10.2" x2="102.538" y2="22.5669" gradientUnits="userSpaceOnUse">
<stop stop-color="#FDA000"/>
<stop offset="1" stop-color="#D3208B"/>
</linearGradient>
<linearGradient id="paint8_linear_1_815" x1="0.029993" y1="10.2" x2="102.538" y2="22.5669" gradientUnits="userSpaceOnUse">
<stop stop-color="#FDA000"/>
<stop offset="1" stop-color="#D3208B"/>
</linearGradient>
<linearGradient id="paint9_linear_1_815" x1="0.0299981" y1="10.2" x2="102.538" y2="22.5669" gradientUnits="userSpaceOnUse">
<stop stop-color="#FDA000"/>
<stop offset="1" stop-color="#D3208B"/>
</linearGradient>
<linearGradient id="paint10_linear_1_815" x1="0.0299731" y1="10.2" x2="102.538" y2="22.5669" gradientUnits="userSpaceOnUse">
<stop stop-color="#FDA000"/>
<stop offset="1" stop-color="#D3208B"/>
</linearGradient>
<linearGradient id="paint11_linear_1_815" x1="0.0300039" y1="10.2" x2="102.538" y2="22.5669" gradientUnits="userSpaceOnUse">
<stop stop-color="#FDA000"/>
<stop offset="1" stop-color="#D3208B"/>
</linearGradient>
<clipPath id="clip0_1_815">
<rect width="104" height="18.6058" fill="white" transform="translate(0.0299988 0.897125)"/>
</clipPath>
</defs>
</svg>
